<svg width="22" height="22" viewBox="0 0 22 22" fill="none" xmlns="http://www.w3.org/2000/svg">
    <path d="M20.8821 19.646L18.0907 16.6479C19.6523 14.743 20.4252 12.3148 20.2491 9.85966C20.0709 7.37517 18.9347 5.05568 17.0784 3.38659C15.222 1.71751 12.7895 0.828176 10.2898 0.904541C7.79017 0.980905 5.41697 2.01704 3.66687 3.79631C1.91676 5.5756 0.925434 7.9601 0.900483 10.4508C0.875532 12.9415 1.81886 15.3452 3.53298 17.159C5.24709 18.9726 7.59914 20.0557 10.0968 20.1817C12.5623 20.3061 14.9811 19.4884 16.8603 17.8977L19.5929 20.8346L19.5928 20.8346L19.5946 20.8365C19.7545 20.9996 19.9719 21.094 20.2005 21.0997C20.4291 21.1054 20.651 21.022 20.8189 20.8671C20.9867 20.7121 21.0873 20.4979 21.0989 20.2701C21.107 20.1104 21.071 19.9529 20.9966 19.8141H21.0387L20.8821 19.646ZM2.85411 10.7908H2.85437V10.6908C2.85437 9.15521 3.31163 7.65408 4.16836 6.37723C5.02508 5.10037 6.24282 4.10512 7.66763 3.5174C9.09245 2.92967 10.6603 2.77586 12.1729 3.07548C13.6855 3.37511 15.0749 4.11467 16.1653 5.20059C17.2558 6.2865 17.9983 7.66999 18.2991 9.17607C18.6 10.6822 18.4455 12.2433 17.8554 13.662C17.2653 15.0807 16.266 16.2934 14.9837 17.1466C13.7015 17.9998 12.194 18.4553 10.6518 18.4553C8.58417 18.4532 6.60194 17.6344 5.13997 16.1787C3.70172 14.7466 2.88252 12.8132 2.85411 10.7908Z" fill="white" stroke="white" stroke-width="0.2"/>
</svg>