<svg width="22" height="23" viewBox="0 0 22 23" fill="none" xmlns="http://www.w3.org/2000/svg">
	<g clip-path="url(#clip0_642_9093)">
		<path d="M10.4746 1.17344C10.7373 0.675635 11.4502 0.675635 11.7129 1.17344L14.4003 6.26714C14.5016 6.45911 14.6862 6.59324 14.9001 6.63024L20.575 7.61214C21.1296 7.7081 21.3499 8.38614 20.9576 8.78976L16.9437 12.9197C16.7924 13.0754 16.7219 13.2924 16.7528 13.5073L17.5726 19.2078C17.6527 19.7649 17.0759 20.184 16.5708 19.9356L11.4026 17.3944C11.2078 17.2986 10.9797 17.2986 10.7849 17.3944L5.61666 19.9356C5.11158 20.184 4.5348 19.7649 4.61492 19.2078L5.43471 13.5073C5.46561 13.2924 5.39509 13.0754 5.24382 12.9197L1.22989 8.78976C0.837615 8.38614 1.05792 7.7081 1.61252 7.61214L7.2874 6.63024C7.50127 6.59324 7.68588 6.45911 7.78717 6.26714L10.4746 1.17344Z" fill="#2F5ACF"/>
	</g>
	<mask id="path-2-inside-1_642_9093" fill="white">
		<path fill-rule="evenodd" clip-rule="evenodd" d="M11 17.3288V0.806209C11.2731 0.77013 11.5647 0.892527 11.7129 1.1734L14.4003 6.2671C14.5016 6.45907 14.6862 6.5932 14.9001 6.63021L20.575 7.6121C21.1296 7.70806 21.3499 8.38611 20.9576 8.78973L16.9437 12.9197C16.7924 13.0754 16.7219 13.2924 16.7528 13.5072L17.5726 19.2078C17.6527 19.7649 17.0759 20.1839 16.5708 19.9356L11.4026 17.3943C11.2764 17.3323 11.1361 17.3104 11 17.3288Z"/>
	</mask>
	<path d="M11 17.3288H10V18.473L11.1339 18.3198L11 17.3288ZM11 0.806209L10.869 -0.185178L10 -0.0703803V0.806209H11ZM11.7129 1.1734L10.8284 1.64004L10.8284 1.64004L11.7129 1.1734ZM14.4003 6.2671L13.5159 6.73374L13.5159 6.73374L14.4003 6.2671ZM14.9001 6.63021L14.7296 7.61557L14.7296 7.61557L14.9001 6.63021ZM20.575 7.6121L20.7455 6.62674L20.575 7.6121ZM20.9576 8.78973L20.2405 8.09277L20.9576 8.78973ZM16.9437 12.9197L17.6608 13.6167L17.6608 13.6167L16.9437 12.9197ZM16.7528 13.5072L17.7426 13.3649V13.3649L16.7528 13.5072ZM17.5726 19.2078L16.5828 19.3501L17.5726 19.2078ZM16.5708 19.9356L16.1296 20.833H16.1296L16.5708 19.9356ZM11.4026 17.3943L11.8439 16.497L11.8439 16.497L11.4026 17.3943ZM12 17.3288V0.806209H10V17.3288H12ZM11.131 1.7976C11.0782 1.80456 11.0209 1.79703 10.9651 1.76985C10.9046 1.74033 10.8559 1.69207 10.8284 1.64004L12.5973 0.70676C12.2363 0.0226045 11.5187 -0.270999 10.869 -0.185178L11.131 1.7976ZM10.8284 1.64004L13.5159 6.73374L15.2848 5.80046L12.5973 0.70676L10.8284 1.64004ZM13.5159 6.73374C13.7619 7.19996 14.2102 7.52569 14.7296 7.61557L15.0706 5.64485C15.1623 5.66071 15.2414 5.71819 15.2848 5.80046L13.5159 6.73374ZM14.7296 7.61557L20.4045 8.59746L20.7455 6.62674L15.0706 5.64485L14.7296 7.61557ZM20.4045 8.59746C20.1668 8.55634 20.0724 8.26575 20.2405 8.09277L21.6747 9.48668C22.6274 8.50647 22.0923 6.85979 20.7455 6.62674L20.4045 8.59746ZM20.2405 8.09277L16.2266 12.2227L17.6608 13.6167L21.6747 9.48668L20.2405 8.09277ZM16.2266 12.2227C15.8592 12.6008 15.6879 13.1278 15.763 13.6496L17.7426 13.3649C17.7558 13.4569 17.7256 13.55 17.6608 13.6167L16.2266 12.2227ZM15.763 13.6496L16.5828 19.3501L18.5624 19.0654L17.7426 13.3649L15.763 13.6496ZM16.5828 19.3501C16.5484 19.1113 16.7956 18.9318 17.0121 19.0382L16.1296 20.833C17.3562 21.4361 18.757 20.4184 18.5624 19.0654L16.5828 19.3501ZM17.0121 19.0382L11.8439 16.497L10.9614 18.2917L16.1296 20.833L17.0121 19.0382ZM11.8439 16.497C11.5372 16.3462 11.1965 16.2932 10.8661 16.3378L11.1339 18.3198C11.0757 18.3277 11.0155 18.3184 10.9614 18.2917L11.8439 16.497Z" fill="#2F5ACF" mask="url(#path-2-inside-1_642_9093)"/>
	<defs>
		<clipPath id="clip0_642_9093">
			<rect width="11" height="23" fill="white"/>
		</clipPath>
	</defs>
</svg>
