<svg width="10" height="10" viewBox="0 0 10 10" fill="none" xmlns="http://www.w3.org/2000/svg">
<path d="M4.49913 1.16905C4.61897 0.800744 5.14002 0.800744 5.25986 1.16905L6.10964 3.78052C6.16324 3.94525 6.31678 4.05675 6.49001 4.05675H9.23868C9.62631 4.05675 9.78733 4.5529 9.47357 4.78052L7.25086 6.39302C7.11046 6.49488 7.05171 6.67562 7.10538 6.84057L7.95462 9.45039C8.0745 9.81881 7.65296 10.1254 7.33936 9.89793L5.11438 8.28378C4.97428 8.18214 4.78471 8.18214 4.64461 8.28378L2.41963 9.89793C2.10603 10.1254 1.68449 9.81881 1.80437 9.45039L2.65361 6.84057C2.70728 6.67562 2.64853 6.49488 2.50813 6.39302L0.285424 4.78052C-0.0283372 4.5529 0.132678 4.05675 0.52031 4.05675H3.26898C3.44221 4.05675 3.59575 3.94525 3.64935 3.78052L4.49913 1.16905Z" fill="black"/>
</svg>