<svg width="22" height="23" viewBox="0 0 22 23" fill="none" xmlns="http://www.w3.org/2000/svg">
	<g clip-path="url(#clip0_642_9102)">
		<path d="M10.7246 1.17344C10.9873 0.675635 11.7002 0.675635 11.9629 1.17344L14.6503 6.26714C14.7516 6.45911 14.9362 6.59324 15.1501 6.63024L20.825 7.61214C21.3796 7.7081 21.5999 8.38614 21.2076 8.78976L17.1937 12.9197C17.0424 13.0754 16.9719 13.2924 17.0028 13.5073L17.8226 19.2078C17.9027 19.7649 17.3259 20.184 16.8208 19.9356L11.6526 17.3944C11.4578 17.2986 11.2297 17.2986 11.0349 17.3944L5.86666 19.9356C5.36158 20.184 4.7848 19.7649 4.86492 19.2078L5.68471 13.5073C5.71561 13.2924 5.64509 13.0754 5.49382 12.9197L1.47989 8.78976C1.08761 8.38614 1.30792 7.7081 1.86252 7.61214L7.5374 6.63024C7.75127 6.59324 7.93588 6.45911 8.03717 6.26714L10.7246 1.17344Z" fill="#2F5ACF"/>
	</g>
	<defs>
		<clipPath id="clip0_642_9102">
			<rect width="22" height="23" fill="white"/>
		</clipPath>
	</defs>
</svg>
